<?xml version="1.0" encoding="utf-8"?>
<!-- Generator: Adobe Illustrator 21.1.0, SVG Export Plug-In . SVG Version: 6.00 Build 0)  -->
<svg version="1.1" id="Слой_1" xmlns="http://www.w3.org/2000/svg" xmlns:xlink="http://www.w3.org/1999/xlink" x="0px" y="0px"
	 viewBox="0 0 376.6 313.4" style="enable-background:new 0 0 376.6 313.4;" xml:space="preserve">
<style type="text/css">
	.st0{fill:#D44621;}
	.st1{fill:#1B1B1B;}
</style>
<g id="Слой_2">
	<g id="Слой_1-2">
		<path class="st0" d="M203.1,36.6l-20.3,59.9h-13.2l-13.4-40.2L143,96.6h-13.2l-20.3-59.9h15.2l12.5,40.9l12.6-40.9h13.1l12.7,40.9
			l12.4-41H203.1z"/>
		<path class="st0" d="M266,36.6v59.9h-14.2V71.9h-29.4v24.7h-14.3v-60h14.3v23.5h29.4V36.6H266z"/>
		<path class="st0" d="M315.3,86.6H290l-4,10h-15.2l25.2-60h13.2l25.1,59.9h-15.1L315.3,86.6z M310.7,74.9l-8-20.6l-8.1,20.6H310.7z
			"/>
		<path class="st0" d="M376.6,48.4h-17.7v48.2h-14.3V48.4h-17.7V36.6h49.7V48.4z"/>
		<path class="st0" d="M256,120.4h-17.8v48.2H224v-48.2h-17.8v-11.7H256V120.4z"/>
		<path class="st0" d="M319.3,108.6v59.9h-14.2v-24.7h-29.4v24.7h-14.3v-59.9h14.3v23.5h29.4v-23.5
			C305.1,108.6,319.3,108.6,319.3,108.6z"/>
		<path class="st0" d="M374,156.8v11.7h-43.4v-59.9h42.7v11.7h-28.4v12h25.6V144h-25.6v12.7L374,156.8z"/>
		<path class="st0" d="M0,210.4c0-18.4,13-30.5,32.6-30.5c9.8,0,18.1,3,24.1,9.6l-8.9,9.1c-3-4.2-8.5-7-15.2-7
			c-10.8,0-17.9,7.6-17.9,19c0,11.5,7.4,19.1,18.3,19.1c7.7,0,12.5-3.4,16.2-9.1l9.6,8.6c-6.1,8.1-14.9,12.2-26.1,12.2
			C13.2,241.4,0,228.9,0,210.4z"/>
		<path class="st0" d="M121.9,180.6v59.9h-14.2v-24.7H78.3v24.7H64.1v-59.9h14.3v23.5h29.4v-23.5H121.9z"/>
		<path class="st0" d="M171.2,230.6h-25.4l-4,10h-15.2l25.3-60h13.2l25.1,59.9h-15.1L171.2,230.6z M166.6,218.9l-8-20.6l-8.1,20.6
			H166.6z"/>
		<path class="st0" d="M195,180.6h8.8l35.6,35.9l-0.3-35.9h14.3v59.9h-8.8l-35.7-36l0.3,36H195V180.6z"/>
		<path class="st0" d="M323.5,210.6c0,18.3-11.7,30.8-30.2,30.8c-19,0-31.7-12.3-31.7-30.8s12.5-30.8,31.7-30.8
			c8.9,0,16.4,2.4,21.9,6.8l-9.3,8.9c-2.6-2.6-6.7-4-12.4-4c-10.3,0-17.2,7.6-17.2,19s6.8,19,17.1,19c8.4,0,14-4.8,15.2-12.1h-13.5
			v-11.7h28.3C323.4,207.4,323.5,209,323.5,210.6z"/>
		<path class="st0" d="M374,228.8v11.7h-43.4v-59.9h42.7v11.7h-28.4v12h25.6V216h-25.6v12.7L374,228.8z"/>
		<path class="st0" d="M334.4,275.1c2.2-2,3.9-3.7,3.9-6.1c0-3.2-2.4-5.4-6.2-5.4c-3.3-0.2-6.1,2.2-6.6,5.4l-13.1-0.6
			c0.6-10,8.4-16.6,19.7-16.6c12.5,0,20.8,6.6,20.8,16.4c0,6.2-3.6,9.3-7.4,12.5s-7.3,6.2-7.3,12h-11.8
			C326.6,282.6,330.9,278.3,334.4,275.1z M324.4,305.4c0-4.4,3.6-8,8-8s8,3.6,8,8s-3.6,8-8,8c-4.3,0.1-7.8-3.2-8-7.5
			C324.5,305.7,324.5,305.5,324.4,305.4L324.4,305.4z"/>
		<path class="st0" d="M357.5,305.4c0-4.4,3.6-8,8-8s8,3.6,8,8s-3.6,8-8,8c-4.3,0.2-7.8-3.2-8-7.4
			C357.4,305.7,357.4,305.5,357.5,305.4z M358.3,252.6h14.3l-1.3,40.1h-11.8L358.3,252.6z"/>
	</g>
</g>
<g>
	<path class="st1" d="M81.6,16.8L81,5.9l-4.9,10.9h-1.7L69.6,6L69,16.8h-3l1.1-16h3.3l5,11l5-11h3.3l1.1,16H81.6z"/>
	<path class="st1" d="M98.4,13.6H91l-1.3,3.2h-3.3l6.8-15.9H96l6.8,15.9h-3.3L98.4,13.6z M97.4,11.1l-2.6-6.5l-2.6,6.5H97.4z"/>
	<path class="st1" d="M111.6,11h-3.3v5.9h-3v-16h6.7c3.4,0,5.6,2,5.6,5c0,2.1-1.1,3.7-2.9,4.5l4.2,6.4h-3.6L111.6,11z M108.4,8.4
		h3.1c1.8,0,3-1,3-2.5s-1.1-2.5-2.8-2.5h-3.3C108.4,3.4,108.4,8.4,108.4,8.4z"/>
	<path class="st1" d="M126.1,9.9h-1.5v6.9h-3V0.9h3v6.5h1.4l5.1-6.5h3.6l-6.1,7.8l6.4,8.2h-3.6L126.1,9.9z"/>
	<path class="st1" d="M148.4,14.3v2.5h-11V0.9h10.8v2.5h-7.8v4.1h7.1V10h-7.1v4.3H148.4z"/>
	<path class="st1" d="M163.1,3.4h-4.9v13.4h-3V3.4h-4.8V0.9h12.7V3.4z"/>
	<path class="st1" d="M165.8,0.9h3v15.9h-3V0.9z"/>
	<path class="st1" d="M173.2,0.9h1.9l10,10.8L185,0.9h3v15.9h-1.9L176.2,6v10.8h-3V0.9z"/>
	<path class="st1" d="M207.5,8.8c0,4.9-3.1,8.2-7.9,8.2c-4.9,0-8.2-3.3-8.2-8.2s3.2-8.2,8.2-8.2c2.3,0,4.2,0.6,5.6,1.8l-2,1.9
		c-0.8-0.8-2-1.1-3.6-1.1c-3.1,0-5.1,2.3-5.1,5.7s2,5.7,5.1,5.7c2.6,0,4.4-1.6,4.7-4.2h-4.1V7.8h7.3C207.5,8.2,207.5,8.5,207.5,8.8z
		"/>
	<path class="st1" d="M215.4,8.8c0-4.9,3.4-8.1,8.4-8.1c2.6,0,4.7,0.9,6.3,2.6l-1.9,1.9c-0.9-1.2-2.4-2-4.3-2
		c-3.2,0-5.3,2.3-5.3,5.6c0,3.4,2.2,5.7,5.4,5.7c2.2,0,3.6-1,4.7-2.5l2,1.8c-1.5,2.1-3.9,3.2-6.8,3.2C218.8,17,215.4,13.7,215.4,8.8
		z"/>
	<path class="st1" d="M232.1,8.8c0-4.9,3.4-8.2,8.4-8.2s8.4,3.3,8.4,8.2s-3.4,8.2-8.4,8.2S232.1,13.8,232.1,8.8z M245.7,8.8
		c0-3.4-2.1-5.7-5.2-5.7s-5.2,2.3-5.2,5.7s2.1,5.7,5.2,5.7S245.7,12.2,245.7,8.8z"/>
	<path class="st1" d="M252.2,0.9h1.9l10,10.8L264,0.9h3v15.9h-1.9L255.2,6v10.8h-3V0.9z"/>
	<path class="st1" d="M274.5,3.4v4.5h6v2.5h-6v6.4h-3V0.9h10.1v2.5H274.5z"/>
	<path class="st1" d="M295.7,14.3v2.5h-11V0.9h10.8v2.5h-7.8v4.1h7.1V10h-7.1v4.3H295.7z"/>
	<path class="st1" d="M305.5,11h-3.3v5.9h-3v-16h6.7c3.4,0,5.6,2,5.6,5c0,2.1-1.1,3.7-3,4.5l4.2,6.4h-3.6L305.5,11z M302.2,8.4h3.1
		c1.8,0,3-1,3-2.5s-1.1-2.5-2.8-2.5h-3.3L302.2,8.4L302.2,8.4z"/>
	<path class="st1" d="M326.5,14.3v2.5h-11V0.9h10.8v2.5h-7.8v4.1h7.1V10h-7.1v4.3H326.5z"/>
	<path class="st1" d="M330,0.9h1.9l10,10.8l-0.1-10.8h3v15.9H343L333,6v10.8h-3V0.9z"/>
	<path class="st1" d="M348.3,8.8c0-4.9,3.4-8.1,8.4-8.1c2.6,0,4.7,0.9,6.3,2.6l-1.9,1.9c-0.9-1.2-2.4-2-4.3-2
		c-3.2,0-5.3,2.3-5.3,5.6c0,3.4,2.2,5.7,5.4,5.7c2.2,0,3.6-1,4.7-2.5l2,1.8c-1.5,2.1-3.9,3.2-6.8,3.2C351.7,17,348.3,13.7,348.3,8.8
		z"/>
	<path class="st1" d="M377.3,14.3v2.5h-11V0.9h10.8v2.5h-7.8v4.1h7.1V10h-7.1v4.3H377.3z"/>
</g>
</svg>
