<?xml version="1.0" encoding="utf-8"?>
<!-- Generator: Adobe Illustrator 21.1.0, SVG Export Plug-In . SVG Version: 6.00 Build 0)  -->
<svg version="1.1" id="Layer_1" xmlns="http://www.w3.org/2000/svg" xmlns:xlink="http://www.w3.org/1999/xlink" x="0px" y="0px"
	 width="280.7px" height="281px" viewBox="0 0 280.7 281" style="enable-background:new 0 0 280.7 281;" xml:space="preserve">
<style type="text/css">
	.st0{clip-path:url(#SVGID_2_);}
	.st1{fill:none;stroke:#000000;stroke-width:2;stroke-miterlimit:10;}
</style>
<g>
	<defs>
		<circle id="SVGID_1_" cx="140.3" cy="141.9" r="133.9"/>
	</defs>
	<clipPath id="SVGID_2_">
		<use xlink:href="#SVGID_1_"  style="overflow:visible;"/>
	</clipPath>
	<g class="st0">
		<line class="st1" x1="-64.4" y1="-45.6" x2="437.3" y2="-45.6"/>
		<line class="st1" x1="-64.4" y1="-30" x2="437.3" y2="-30"/>
		<line class="st1" x1="-64.4" y1="-14.3" x2="437.3" y2="-14.3"/>
		<line class="st1" x1="-64.4" y1="1.3" x2="437.3" y2="1.3"/>
		<line class="st1" x1="-64.4" y1="16.9" x2="437.3" y2="16.9"/>
		<line class="st1" x1="-64.4" y1="32.5" x2="437.3" y2="32.5"/>
		<line class="st1" x1="-64.4" y1="48.2" x2="437.3" y2="48.2"/>
		<line class="st1" x1="-64.4" y1="63.8" x2="437.3" y2="63.8"/>
		<line class="st1" x1="-64.4" y1="79.4" x2="437.3" y2="79.4"/>
		<line class="st1" x1="-64.4" y1="95" x2="437.3" y2="95"/>
		<line class="st1" x1="-64.4" y1="110.7" x2="437.3" y2="110.7"/>
		<line class="st1" x1="-64.4" y1="126.3" x2="437.3" y2="126.3"/>
		<line class="st1" x1="-64.4" y1="141.9" x2="437.3" y2="141.9"/>
		<line class="st1" x1="-64.4" y1="157.5" x2="437.3" y2="157.5"/>
		<line class="st1" x1="-64.4" y1="173.2" x2="437.3" y2="173.2"/>
		<line class="st1" x1="-64.4" y1="188.8" x2="437.3" y2="188.8"/>
		<line class="st1" x1="-64.4" y1="204.4" x2="437.3" y2="204.4"/>
		<line class="st1" x1="-64.4" y1="220" x2="437.3" y2="220"/>
		<line class="st1" x1="-64.4" y1="235.7" x2="437.3" y2="235.7"/>
		<line class="st1" x1="-64.4" y1="251.3" x2="437.3" y2="251.3"/>
		<line class="st1" x1="-64.4" y1="266.9" x2="437.3" y2="266.9"/>
		<line class="st1" x1="-64.4" y1="282.5" x2="437.3" y2="282.5"/>
		<line class="st1" x1="-64.4" y1="298.2" x2="437.3" y2="298.2"/>
		<line class="st1" x1="-64.4" y1="313.8" x2="437.3" y2="313.8"/>
		<line class="st1" x1="-64.4" y1="329.4" x2="437.3" y2="329.4"/>
	</g>
</g>
</svg>
