<?xml version="1.0" encoding="utf-8"?>
<!-- Generator: Adobe Illustrator 21.1.0, SVG Export Plug-In . SVG Version: 6.00 Build 0)  -->
<svg version="1.1" id="Слой_1" xmlns="http://www.w3.org/2000/svg" xmlns:xlink="http://www.w3.org/1999/xlink" x="0px" y="0px"
	 width="267px" height="397px" viewBox="0 0 267 397" style="enable-background:new 0 0 267 397;" xml:space="preserve">
<style type="text/css">
	.st0{fill:#202FF8;}
	.st1{fill:#FFFFFF;}
	.st2{fill:#1B1B1B;}
</style>
<g>
	<rect x="2" y="3" class="st0" width="262.7" height="221.6"/>
	<g>
		<path class="st1" d="M17,110.5c0-52.7,26.1-87.9,65.2-87.9c39.1,0,65,35.2,65,87.9c0,52.8-25.9,87.9-65,87.9
			C43.1,198.4,17,163.2,17,110.5z M113.7,110.5c0-36.6-12.5-60.8-31.5-60.8c-19,0-31.5,24.3-31.5,60.8s12.5,60.8,31.5,60.8
			C101.2,171.3,113.7,147,113.7,110.5z"/>
		<path class="st1" d="M209.8,66.7l-33.3,23.6l-16.2-23.1l57.4-42.3h24.8v171.2h-32.6V66.7z"/>
	</g>
	<g>
		<path class="st2" d="M3.1,245.2h3.8L27.2,267l-0.1-21.8h6.1v32.2h-3.8L9.1,255.6l0.1,21.8H3.1V245.2z"/>
		<path class="st2" d="M38.7,261.3c0-9.9,6.8-16.5,16.9-16.5c10.1,0,16.9,6.6,16.9,16.5c0,9.9-6.8,16.5-16.9,16.5
			C45.5,277.9,38.7,271.3,38.7,261.3z M66.2,261.3c0-6.9-4.2-11.5-10.5-11.5c-6.3,0-10.6,4.6-10.6,11.5c0,6.9,4.3,11.5,10.6,11.5
			C62,272.8,66.2,268.2,66.2,261.3z"/>
		<path class="st2" d="M72.8,245.2h6.5l10.1,24.6l10-24.6h6.6l-13.7,32.2h-5.7L72.8,245.2z"/>
		<path class="st2" d="M132,272.4v5.1h-22.3v-32.2h21.9v5.1h-15.8v8.3h14.4v5.1h-14.4v8.7H132z"/>
		<path class="st2" d="M168.3,277.4l-1.3-22l-9.8,22h-3.4l-9.8-21.9l-1.3,21.9h-6.1l2.2-32.4h6.8l10,22.3l10-22.3h6.8l2.2,32.4
			H168.3z"/>
		<path class="st2" d="M206,268.1c0,5.6-4.4,9.4-11.2,9.4h-14v-32.2h13.8c5.8,0,9.7,3.4,9.7,8.4c0,2.9-1.6,5.2-4.3,6.7
			C203.6,261.6,206,264.4,206,268.1z M186.9,258.4h6.2c2.9,0,4.8-1.6,4.8-4c0-2.4-2-4-4.8-4h-6.2V258.4z M199.6,267.9
			c0-2.7-2.1-4.5-5.2-4.5h-7.5v8.9h7.4C197.5,272.4,199.6,270.6,199.6,267.9z"/>
		<path class="st2" d="M233.6,272.4v5.1h-22.3v-32.2h21.9v5.1h-15.8v8.3h14.4v5.1h-14.4v8.7H233.6z"/>
		<path class="st2" d="M252,265.6h-6.6v11.8h-6.1v-32.2h13.5c6.8,0,11.3,4.1,11.3,10.2c0,4.2-2.2,7.4-6,9l8.5,13h-7.2L252,265.6z
			 M245.4,260.5h6.2c3.7,0,6.1-2,6.1-5.1c0-3-2.3-5.1-5.7-5.1h-6.7V260.5z"/>
	</g>
	<g>
		<path class="st2" d="M2.4,382.9l27.9-30.3c4.8-5.2,14.9-15.5,14.9-24.9c0-6.7-4.8-11.2-11.7-11.2c-7.7,0-12.7,5.5-12.7,13.5
			l-17.5-1.6c0-15.7,11.8-26.2,29.7-26.2s29.5,9.5,29.5,24.2c0,12.8-8.8,23.2-20.9,35.9l-16.8,17.6l38.8-0.4v14.3H2.4V382.9z"/>
		<path class="st2" d="M72.6,348.6c0-27.8,13.8-46.4,34.4-46.4s34.3,18.6,34.3,46.4c0,27.8-13.7,46.4-34.3,46.4
			S72.6,376.4,72.6,348.6z M123.6,348.6c0-19.3-6.6-32.1-16.6-32.1s-16.6,12.8-16.6,32.1c0,19.3,6.6,32.1,16.6,32.1
			S123.6,367.9,123.6,348.6z"/>
		<path class="st2" d="M172.8,325.6L155.3,338l-8.5-12.2l30.3-22.3H190v90.3h-17.2V325.6z"/>
		<path class="st2" d="M265.1,330.9c0,10.4-3.5,18.1-9.8,26.7l-25.5,36.1h-19.4l26.4-35.5c-2,0.4-4.3,0.5-6.8,0.5
			c-15.4,0-28.1-11-28.1-27.6c0-17.3,12.7-28.9,31.6-28.9C252.4,302.2,265.1,313.7,265.1,330.9z M233.6,345.7
			c8.2,0,13.8-6,13.8-14.6c0-8.8-5.6-14.5-13.8-14.5c-8.3,0-13.8,5.7-13.8,14.5C219.8,339.7,225.3,345.7,233.6,345.7z"/>
	</g>
</g>
</svg>
