<svg xmlns="http://www.w3.org/2000/svg" xmlns:xlink="http://www.w3.org/1999/xlink" viewBox="0 0 420 54.72"><defs><style>.cls-1{fill:none;}.cls-2{clip-path:url(#clip-path);}</style><clipPath id="clip-path" transform="translate(0 -2.14)"><rect class="cls-1" width="420" height="61"/></clipPath></defs><title>Ресурс 1</title><g id="Слой_2" data-name="Слой 2"><g id="Слой_1-2" data-name="Слой 1"><g class="cls-2"><path d="M369.72,26.76H334.53v5.86h35.19Zm-110.5,0H177.57v5.86h81.66Zm-147,0H70.39v5.86h41.83ZM300.68,2.42c-16.37,0-27.77,11.79-27.77,27.11,0,15.62,10.74,27.33,27.77,27.33A29,29,0,0,0,322,48l-6.67-9.43c-3.63,3.61-8.81,6.48-14.07,6.48-10.22,0-15-8-15-15.84,0-7.59,4.37-15,15-15,4.74,0,9.85,2.43,13.26,5.38l6-9.73c-5.19-5.08-12.74-7.44-19.85-7.44M138.77,34.68l3.1-10.27c1-3.32,2.19-9.08,2.19-9.08h.15s1.21,5.76,2.19,9.08l3,10.27ZM118.83,56.1h13.59L135.67,45h16.85l3.32,11.08h13.6L151.08,3.29h-13.9ZM0,56.08H12.93l1.62-23.77a79.3,79.3,0,0,0,0-8.86h.14s1.77,5.54,2.94,8.86l5.51,15.28h11l5.51-15.28c1.18-3.32,2.94-8.86,2.94-8.86h.15a79.3,79.3,0,0,0,0,8.86l1.62,23.77H57.23L53,3.3H39l-7.64,22.3C30.2,29,28.73,34.3,28.73,34.3h-.15S27.11,29,25.93,25.59L18.29,3.3h-14ZM389,39.4c2.94,2.59,8,5.47,12.66,5.47,3.61,0,5.45-1.62,5.45-3.7,0-7.47-23.26-6.28-23.26-22.84,0-9.76,8-16.19,19.07-16.19a24.79,24.79,0,0,1,16.49,6L414,18.7A19,19,0,0,0,402.33,14c-3.9,0-5.59,1.63-5.59,3.77,0,7.54,23.26,5.77,23.26,22.48,0,8.87-6.55,16.49-18.7,16.49a27.17,27.17,0,0,1-19.06-7.54Z" transform="translate(0 -2.14)"/></g></g></g></svg>