<svg xmlns="http://www.w3.org/2000/svg" xmlns:xlink="http://www.w3.org/1999/xlink" viewBox="0 0 2685.85 704.37"><defs><style>.cls-1{fill:none;}.cls-2{clip-path:url(#clip-path);}.cls-3{fill:#fe0002;}</style><clipPath id="clip-path" transform="translate(0 0)"><rect class="cls-1" width="2685.85" height="704.37"/></clipPath></defs><title>Ресурс 1</title><g id="Слой_2" data-name="Слой 2"><g id="Слой_1-2" data-name="Слой 1"><g class="cls-2"><path class="cls-3" d="M246,120q-109,0-109,72,0,32,27,49t126.5,49Q390,322,430,362.5T470,487q0,107-65,162T235,704q-78,0-191-24L8,673,22,566q134,18,205,18,106,0,106-88,0-32-24.5-50T211,407Q95,374,47.5,328.5T0,202Q0,100,62,50T232,0q74,0,188,20l36,7L445,136q-141-16-199-16" transform="translate(0 0)"/><path class="cls-3" d="M733.13,703.67q124,0,177-68.5t53-192.5q0-263-230-263t-230,263q0,124,53,192.5t177,68.5m0-410q53,0,73.5,36t20.5,113q0,77-20.5,112t-73.5,35q-53,0-73.5-35t-20.5-112q0-77,20.5-113t73.5-36" transform="translate(0 0)"/><path class="cls-3" d="M1015.26,567.22q124,16,173.5,16t64-9q14.5-9,14.5-28.5t-19.5-27q-19.5-7.5-100-22t-114.5-47.5q-34-33-34-107,0-162,201-162,66,0,160,18l32,6-4,112q-124-16-172.5-16t-66,9.5q-17.5,9.5-17.5,28.5t18.5,28q18.5,9,96,22t115.5,44q38,31,38,110.5t-54,120q-54,40.5-139,40.5-59,0-161-19l-33-6Z" transform="translate(0 0)"/><path class="cls-3" d="M1744.85,306.37h-123v205q0,30,1.5,42.5a34.54,34.54,0,0,0,11,21.5q9.5,9,29.5,9l76-2,6,107q-67,15-102,15-90,0-123-40.5t-33-149.5v-208h-59v-114h59v-139h134v139h123Z" transform="translate(0 0)"/><path class="cls-3" d="M2191.17,348V556q2,24,8,33.5t25,13.5l-4,101q-51,0-81.5-7t-61.5-28q-72,35-147,35-155,0-155-164,0-80,43-113.5t132-39.5l107-8V348q0-31-14-42.5t-45-11.5l-188,8-4-93q107-29,203.5-29t139,40q42.5,40,42.5,128m-225,132q-56,5-56,60t49,55q38,0,83-12l15-4V472Z" transform="translate(0 0)"/><polygon class="cls-3" points="2685.85 204.04 2545.85 204.04 2465.85 590.04 2437.85 590.04 2353.85 204.04 2217.85 204.04 2337.85 704.04 2565.85 704.04 2685.85 204.04"/></g></g></g></svg>